<?xml version="1.0" encoding="UTF-8"?>
<!DOCTYPE svg PUBLIC "-//W3C//DTD SVG 1.1//EN" "http://www.w3.org/Graphics/SVG/1.1/DTD/svg11.dtd">
<svg id="Layer_1" xmlns="http://www.w3.org/2000/svg" viewBox="0 0 570 169.9" xml:space="preserve" width="202px" height="75px" version="1.333333" style="shape-rendering:geometricPrecision; text-rendering:geometricPrecision; image-rendering:optimizeQuality; fill-rule:evenodd; clip-rule:evenodd">
  <style>
    .st0{fill:#fff}.st1{fill:#1950ff}
  </style>
  <path class="st0" d="M179.6 93.3h21.5l-10.7-30.4-10.8 30.4zm32.4 30.9l-6.8-19.3h-29.6l-6.8 19.3h-15.6L182 45.7h16.4l29.9 78.5H212zM266.3 58.5c-14.6 0-25.7 12.2-25.7 26.5 0 14.2 11.3 26.3 25.7 26.3 14.4 0 25.7-12.1 25.7-26.3.1-14.3-11.1-26.5-25.7-26.5m0 66.7c-22.2 0-40.5-17.8-40.5-40.1 0-22.5 18.1-40.5 40.5-40.5s40.5 18 40.5 40.5c0 22.3-18.3 40.1-40.5 40.1M366.3 45.7h15v78.5h-15l-36.2-54.4v54.4h-14.9V45.7h14.9l36.2 54.2z"/>
  <path class="st1" d="M433.6 83.2c4.1 1.7 7.2 4.1 9.5 7.4 2.3 3.3 3.4 7.2 3.4 11.6 0 6.9-2.6 12.5-7.9 16.7-5.3 4.2-12.2 6.3-20.8 6.3-8.5 0-15.3-2.3-20.3-6.8s-7.4-10.5-7.3-18h14.7c-.1 4.1 1.1 7.2 3.5 9.4s5.6 3.4 9.6 3.4 7.3-1.1 9.8-3.2c2.5-2.1 3.8-4.9 3.8-8.4 0-3.7-1.3-6.5-4-8.5s-6.2-3-10.6-3h-6.6V77.6h5.4c4.6 0 8.1-1 10.5-2.9 2.4-1.9 3.6-4.5 3.6-7.8 0-3.1-1.1-5.6-3.4-7.5-2.3-1.9-5.3-2.8-9-2.8-4.2 0-7.4 1.2-9.5 3.5-2.1 2.3-3.2 5.4-3 9.2h-14.8c-.3-7.4 2.1-13.3 7.2-17.9 5.1-4.5 11.9-6.8 20.4-6.8 7.9 0 14.3 1.9 19.4 5.8 5.1 3.9 7.6 9 7.6 15.5 0 3.7-1 7.1-2.9 10.1-2 3.1-4.7 5.4-8.3 7.2M469.5 111.5h14.1c8.5 0 14.9-2.4 19.4-7.2 4.5-4.8 6.7-11.3 6.7-19.5 0-8.6-2.3-15.1-7-19.7-4.7-4.5-11-6.8-19-6.8h-14.1v53.2zm-14.9 12.7V45.7h30.3c12.3 0 22.2 3.6 29.5 10.7 7.3 7.1 11 16.7 11 28.6 0 12-3.7 21.5-11 28.6-7.3 7.1-17.2 10.6-29.5 10.6h-30.3zM44.6 44.6v22.2L132.4 99l7.2-19.5z"/>
  <path class="st0" d="M64.3 101.6v23.6l54-20.8-31.4-11.5z"/>
</svg>
